{"asset":{"version":"2.0","generator":"THREE.GLTFExporter"},"scenes":[{"name":"AuxScene","nodes":[0]}],"scene":0,"nodes":[{"mesh":0}],"bufferViews":[{"buffer":0,"byteOffset":0,"byteLength":86256,"target":34962,"byteStride":12},{"buffer":0,"byteOffset":86256,"byteLength":86256,"target":34962,"byteStride":12}],"buffers":[{"byteLength":172512,"uri":"data:application/octet-stream;base64,"}],"accessors":[{"bufferView":0,"componentType":5126,"count":7188,"max":[102.7119140625,171.9959716796875,102.7119140625],"min":[-102.78809356689453,0.19596900045871735,-102.78809356689453],"type":"VEC3"},{"bufferView":1,"componentType":5126,"count":7188,"max":[0.9891725182533264,1,0.9955287575721741],"min":[-0.9799284934997559,0.07000450789928436,-0.8900441527366638],"type":"VEC3"}],"materials":[{"pbrMetallicRoughness":{"baseColorFactor":[0.5019607843137255,0.5019607843137255,0.5019607843137255,1],"metallicFactor":0,"roughnessFactor":1}}],"meshes":[{"primitives":[{"mode":4,"attributes":{"POSITION":0,"NORMAL":1},"material":0}]}]}