{"asset":{"version":"2.0","generator":"THREE.GLTFExporter"},"scenes":[{"name":"AuxScene","nodes":[0]}],"scene":0,"nodes":[{"mesh":0}],"bufferViews":[{"buffer":0,"byteOffset":0,"byteLength":9144,"target":34962,"byteStride":12},{"buffer":0,"byteOffset":9144,"byteLength":9144,"target":34962,"byteStride":12}],"buffers":[{"byteLength":18288,"uri":"data:application/octet-stream;base64,"}],"accessors":[{"bufferView":0,"componentType":5126,"count":762,"max":[91.01190185546875,191.59597778320312,79.01190185546875],"min":[-82.98809814453125,1.5959700345993042,-82.98809814453125],"type":"VEC3"},{"bufferView":1,"componentType":5126,"count":762,"max":[0.5547001957893372,1,0.8178887367248535],"min":[-0.5547001957893372,0.5257856249809265,-0.4437601566314697],"type":"VEC3"}],"materials":[{"pbrMetallicRoughness":{"baseColorFactor":[0.5019607843137255,0.5019607843137255,0.5019607843137255,1],"metallicFactor":0,"roughnessFactor":1}}],"meshes":[{"primitives":[{"mode":4,"attributes":{"POSITION":0,"NORMAL":1},"material":0}]}]}