{
    "asset" : {
        "generator" : "Khronos glTF Blender I/O v1.7.33",
        "version" : "2.0"
    },
    "scene" : 0,
    "scenes" : [
        {
            "name" : "Scene",
            "nodes" : [
                0,
                1,
                2,
                3
            ]
        }
    ],
    "nodes" : [
        {
            "mesh" : 0,
            "name" : "Navmesh.005",
            "rotation" : [
                0.7071068286895752,
                0,
                0,
                0.7071067094802856
            ]
        },
        {
            "mesh" : 1,
            "name" : "Navmesh.003",
            "rotation" : [
                0.7071068286895752,
                0,
                0,
                0.7071067094802856
            ]
        },
        {
            "mesh" : 2,
            "name" : "Navmesh.002",
            "rotation" : [
                0.7071068286895752,
                0,
                0,
                0.7071067094802856
            ]
        },
        {
            "mesh" : 3,
            "name" : "Navmesh",
            "rotation" : [
                0.7071068286895752,
                0,
                0,
                0.7071067094802856
            ]
        }
    ],
    "materials" : [
        {
            "doubleSided" : true,
            "name" : "None",
            "pbrMetallicRoughness" : {
                "baseColorFactor" : [
                    0.800000011920929,
                    0.800000011920929,
                    0.800000011920929,
                    1
                ],
                "metallicFactor" : 0
            }
        }
    ],
    "meshes" : [
        {
            "name" : "Navmesh.005",
            "primitives" : [
                {
                    "attributes" : {
                        "POSITION" : 0
                    },
                    "indices" : 1,
                    "material" : 0
                }
            ]
        },
        {
            "name" : "Navmesh.003",
            "primitives" : [
                {
                    "attributes" : {
                        "POSITION" : 2
                    },
                    "indices" : 3,
                    "material" : 0
                }
            ]
        },
        {
            "name" : "Navmesh.002",
            "primitives" : [
                {
                    "attributes" : {
                        "POSITION" : 4
                    },
                    "indices" : 5,
                    "material" : 0
                }
            ]
        },
        {
            "name" : "Navmesh",
            "primitives" : [
                {
                    "attributes" : {
                        "POSITION" : 6
                    },
                    "indices" : 7,
                    "material" : 0
                }
            ]
        }
    ],
    "accessors" : [
        {
            "bufferView" : 0,
            "componentType" : 5126,
            "count" : 520,
            "max" : [
                207.20001220703125,
                63.100006103515625,
                -64.19998931884766
            ],
            "min" : [
                -543.0999755859375,
                -735.2000122070312,
                -64.19998931884766
            ],
            "type" : "VEC3"
        },
        {
            "bufferView" : 1,
            "componentType" : 5123,
            "count" : 1527,
            "type" : "SCALAR"
        },
        {
            "bufferView" : 2,
            "componentType" : 5126,
            "count" : 2517,
            "max" : [
                959.0001220703125,
                606.7999877929688,
                -0.19992700219154358
            ],
            "min" : [
                -830.7999877929688,
                -863.2000732421875,
                -352.199951171875
            ],
            "type" : "VEC3"
        },
        {
            "bufferView" : 3,
            "componentType" : 5123,
            "count" : 7500,
            "type" : "SCALAR"
        },
        {
            "bufferView" : 4,
            "componentType" : 5126,
            "count" : 975,
            "max" : [
                907.2000732421875,
                255.2000274658203,
                -36.19995880126953
            ],
            "min" : [
                -575.0999755859375,
                -783.10009765625,
                -124.19996643066406
            ],
            "type" : "VEC3"
        },
        {
            "bufferView" : 5,
            "componentType" : 5123,
            "count" : 2871,
            "type" : "SCALAR"
        },
        {
            "bufferView" : 6,
            "componentType" : 5126,
            "count" : 2082,
            "max" : [
                895,
                367.1000061035156,
                -48.1999626159668
            ],
            "min" : [
                -583.0999755859375,
                -815.2000732421875,
                -128.19996643066406
            ],
            "type" : "VEC3"
        },
        {
            "bufferView" : 7,
            "componentType" : 5123,
            "count" : 6186,
            "type" : "SCALAR"
        }
    ],
    "bufferViews" : [
        {
            "buffer" : 0,
            "byteLength" : 6240,
            "byteOffset" : 0
        },
        {
            "buffer" : 0,
            "byteLength" : 3054,
            "byteOffset" : 6240
        },
        {
            "buffer" : 0,
            "byteLength" : 30204,
            "byteOffset" : 9296
        },
        {
            "buffer" : 0,
            "byteLength" : 15000,
            "byteOffset" : 39500
        },
        {
            "buffer" : 0,
            "byteLength" : 11700,
            "byteOffset" : 54500
        },
        {
            "buffer" : 0,
            "byteLength" : 5742,
            "byteOffset" : 66200
        },
        {
            "buffer" : 0,
            "byteLength" : 24984,
            "byteOffset" : 71944
        },
        {
            "buffer" : 0,
            "byteLength" : 12372,
            "byteOffset" : 96928
        }
    ],
    "buffers" : [
        {
            "byteLength" : 109300,
            "uri" : "data:application/octet-stream;base64,"
        }
    ]
}
