{
    "asset" : {
        "generator" : "Khronos glTF Blender I/O v1.7.33",
        "version" : "2.0"
    },
    "scene" : 0,
    "scenes" : [
        {
            "name" : "Scene",
            "nodes" : [
                0
            ]
        }
    ],
    "nodes" : [
        {
            "mesh" : 0,
            "name" : "Navmesh",
            "rotation" : [
                0.7071068286895752,
                0,
                0,
                0.7071067094802856
            ]
        }
    ],
    "meshes" : [
        {
            "name" : "Navmesh",
            "primitives" : [
                {
                    "attributes" : {
                        "POSITION" : 0,
                        "NORMAL" : 1
                    },
                    "indices" : 2
                }
            ]
        }
    ],
    "accessors" : [
        {
            "bufferView" : 0,
            "componentType" : 5126,
            "count" : 2191,
            "max" : [
                895,
                367.1000061035156,
                -48.1999626159668
            ],
            "min" : [
                -583.0999755859375,
                -815.2000732421875,
                -128.19996643066406
            ],
            "type" : "VEC3"
        },
        {
            "bufferView" : 1,
            "componentType" : 5126,
            "count" : 2191,
            "type" : "VEC3"
        },
        {
            "bufferView" : 2,
            "componentType" : 5123,
            "count" : 6186,
            "type" : "SCALAR"
        }
    ],
    "bufferViews" : [
        {
            "buffer" : 0,
            "byteLength" : 26292,
            "byteOffset" : 0
        },
        {
            "buffer" : 0,
            "byteLength" : 26292,
            "byteOffset" : 26292
        },
        {
            "buffer" : 0,
            "byteLength" : 12372,
            "byteOffset" : 52584
        }
    ],
    "buffers" : [
        {
            "byteLength" : 64956,
            "uri" : "data:application/octet-stream;base64,"
        }
    ]
}
