{"asset":{"version":"2.0","generator":"THREE.GLTFExporter"},"scenes":[{"name":"AuxScene","nodes":[0]}],"scene":0,"nodes":[{"mesh":0}],"bufferViews":[{"buffer":0,"byteOffset":0,"byteLength":3060,"target":34962,"byteStride":12},{"buffer":0,"byteOffset":3060,"byteLength":3060,"target":34962,"byteStride":12}],"buffers":[{"byteLength":6120,"uri":"data:application/octet-stream;base64,"}],"accessors":[{"bufferView":0,"componentType":5126,"count":255,"max":[49.01190185546875,25.595970153808594,7.01190185546875],"min":[-106.98809814453125,0.5959699749946594,-144.98809814453125],"type":"VEC3"},{"bufferView":1,"componentType":5126,"count":255,"max":[0,1,0],"min":[0,1,0],"type":"VEC3"}],"materials":[{"pbrMetallicRoughness":{"baseColorFactor":[0.5019607843137255,0.5019607843137255,0.5019607843137255,1],"metallicFactor":0,"roughnessFactor":1}}],"meshes":[{"primitives":[{"mode":4,"attributes":{"POSITION":0,"NORMAL":1},"material":0}]}]}