{"asset":{"version":"2.0","generator":"THREE.GLTFExporter"},"scenes":[{"name":"AuxScene","nodes":[0]}],"scene":0,"nodes":[{"mesh":0}],"bufferViews":[{"buffer":0,"byteOffset":0,"byteLength":18360,"target":34962,"byteStride":12},{"buffer":0,"byteOffset":18360,"byteLength":18360,"target":34962,"byteStride":12}],"buffers":[{"byteLength":36720,"uri":"data:application/octet-stream;base64,"}],"accessors":[{"bufferView":0,"componentType":5126,"count":1530,"max":[180.780029296875,24.899999618530273,50.3800048828125],"min":[-114.41999816894531,0.10000000149011612,-156.02000427246094],"type":"VEC3"},{"bufferView":1,"componentType":5126,"count":1530,"max":[0.40613770484924316,1,0.40521344542503357],"min":[-0.5546963810920715,0.8320528268814087,-0.13385562598705292],"type":"VEC3"}],"materials":[{"pbrMetallicRoughness":{"baseColorFactor":[0.5019607843137255,0.5019607843137255,0.5019607843137255,1],"metallicFactor":0,"roughnessFactor":1}}],"meshes":[{"primitives":[{"mode":4,"attributes":{"POSITION":0,"NORMAL":1},"material":0}]}]}