{
    "asset" : {
        "version" : "2.0",
        "generator" : "Khronos glTF Blender I/O v1.2.20"
    },
    "scene" : 0,
    "scenes" : [
        {
            "nodes" : [
                0
            ],
            "name" : "Scene"
        }
    ],
    "nodes" : [
        {
            "translation" : [
                -463.0115661621094,
                0,
                0
            ],
            "mesh" : 0,
            "name" : "Navmesh"
        }
    ],
    "meshes" : [
        {
            "primitives" : [
                {
                    "indices" : 2,
                    "attributes" : {
                        "POSITION" : 0,
                        "NORMAL" : 1
                    }
                }
            ],
            "name" : "Navmesh.001"
        }
    ],
    "accessors" : [
        {
            "bufferView" : 0,
            "componentType" : 5126,
            "max" : [
                893.2000732421875,
                96.7999267578125,
                -2.200042724609375
            ],
            "type" : "VEC3",
            "min" : [
                330.7000732421875,
                88.59992980957031,
                -417.7000427246094
            ],
            "count" : 657
        },
        {
            "type" : "VEC3",
            "bufferView" : 1,
            "count" : 657,
            "componentType" : 5126
        },
        {
            "type" : "SCALAR",
            "bufferView" : 2,
            "count" : 1464,
            "componentType" : 5123
        }
    ],
    "bufferViews" : [
        {
            "byteOffset" : 0,
            "byteLength" : 7884,
            "buffer" : 0
        },
        {
            "byteOffset" : 7884,
            "byteLength" : 7884,
            "buffer" : 0
        },
        {
            "byteOffset" : 15768,
            "byteLength" : 2928,
            "buffer" : 0
        }
    ],
    "buffers" : [
        {
            "uri" : "data:application/octet-stream;base64,",
            "byteLength" : 18696
        }
    ]
}
