{
    "asset" : {
        "generator" : "Khronos glTF Blender I/O v1.2.20",
        "version" : "2.0"
    },
    "scene" : 0,
    "scenes" : [
        {
            "name" : "Scene",
            "nodes" : [
                0
            ]
        }
    ],
    "nodes" : [
        {
            "mesh" : 0,
            "name" : "Navmesh.001"
        }
    ],
    "meshes" : [
        {
            "primitives" : [
                {
                    "indices" : 2,
                    "attributes" : {
                        "NORMAL" : 0,
                        "POSITION" : 1
                    }
                }
            ],
            "name" : "Navmesh.002"
        }
    ],
    "accessors" : [
        {
            "bufferView" : 0,
            "count" : 2734,
            "type" : "VEC3",
            "componentType" : 5126
        },
        {
            "max" : [
                894.10009765625,
                128.39993286132812,
                366.1999816894531
            ],
            "min" : [
                -582.199951171875,
                48.39992904663086,
                -814.300048828125
            ],
            "componentType" : 5126,
            "bufferView" : 1,
            "type" : "VEC3",
            "count" : 2734
        },
        {
            "bufferView" : 2,
            "count" : 5946,
            "type" : "SCALAR",
            "componentType" : 5123
        }
    ],
    "bufferViews" : [
        {
            "byteLength" : 32808,
            "byteOffset" : 0,
            "buffer" : 0
        },
        {
            "byteLength" : 32808,
            "byteOffset" : 32808,
            "buffer" : 0
        },
        {
            "byteLength" : 11892,
            "byteOffset" : 65616,
            "buffer" : 0
        }
    ],
    "buffers" : [
        {
            "byteLength" : 77508,
            "uri" : "data:application/octet-stream;base64,"
        }
    ]
}
