{"asset":{"version":"2.0","generator":"THREE.GLTFExporter"},"scenes":[{"name":"AuxScene","nodes":[0]}],"scene":0,"nodes":[{"mesh":0}],"bufferViews":[{"buffer":0,"byteOffset":0,"byteLength":18648,"target":34962,"byteStride":12},{"buffer":0,"byteOffset":18648,"byteLength":18648,"target":34962,"byteStride":12}],"buffers":[{"byteLength":37296,"uri":"data:application/octet-stream;base64,"}],"accessors":[{"bufferView":0,"componentType":5126,"count":1554,"max":[179.56002807617188,-74.97270965576172,50.3800048828125],"min":[-115.63999938964844,-99.77271270751953,-156.02000427246094],"type":"VEC3"},{"bufferView":1,"componentType":5126,"count":1554,"max":[0.4894911050796509,1,0.45512381196022034],"min":[-0.9116811156272888,0.3418925106525421,-0.24565692245960236],"type":"VEC3"}],"materials":[{"pbrMetallicRoughness":{"baseColorFactor":[0.5019607843137255,0.5019607843137255,0.5019607843137255,1],"metallicFactor":0,"roughnessFactor":1}}],"meshes":[{"primitives":[{"mode":4,"attributes":{"POSITION":0,"NORMAL":1},"material":0}]}]}