{
    "asset" : {
        "version" : "2.0",
        "generator" : "Khronos glTF Blender I/O v1.2.20"
    },
    "scene" : 0,
    "scenes" : [
        {
            "nodes" : [
                0
            ],
            "name" : "Scene"
        }
    ],
    "nodes" : [
        {
            "mesh" : 0,
            "name" : "Navmesh"
        }
    ],
    "meshes" : [
        {
            "primitives" : [
                {
                    "indices" : 2,
                    "attributes" : {
                        "POSITION" : 0,
                        "NORMAL" : 1
                    }
                }
            ],
            "name" : "Navmesh.001"
        }
    ],
    "accessors" : [
        {
            "bufferView" : 0,
            "componentType" : 5126,
            "max" : [
                893.2000732421875,
                128.5999298095703,
                365.29998779296875
            ],
            "type" : "VEC3",
            "min" : [
                -573.7999267578125,
                48.59992980957031,
                -813.400146484375
            ],
            "count" : 2823
        },
        {
            "type" : "VEC3",
            "bufferView" : 1,
            "count" : 2823,
            "componentType" : 5126
        },
        {
            "type" : "SCALAR",
            "bufferView" : 2,
            "count" : 6102,
            "componentType" : 5123
        }
    ],
    "bufferViews" : [
        {
            "byteOffset" : 0,
            "byteLength" : 33876,
            "buffer" : 0
        },
        {
            "byteOffset" : 33876,
            "byteLength" : 33876,
            "buffer" : 0
        },
        {
            "byteOffset" : 67752,
            "byteLength" : 12204,
            "buffer" : 0
        }
    ],
    "buffers" : [
        {
            "uri" : "data:application/octet-stream;base64,",
            "byteLength" : 79956
        }
    ]
}
