{
    "asset": {
        "generator": "Khronos glTF Blender I/O v1.7.33",
        "version": "2.0"
    },
    "buffers": [
        {
            "uri": "data:application/octet-stream;base64,",
            "byteLength": 15702
        }
    ],
    "bufferViews": [
        {
            "buffer": 0,
            "byteOffset": 0,
            "byteLength": 5292,
            "byteStride": 12,
            "target": 34962
        },
        {
            "buffer": 0,
            "byteOffset": 5292,
            "byteLength": 5292,
            "byteStride": 12,
            "target": 34962
        },
        {
            "buffer": 0,
            "byteOffset": 10584,
            "byteLength": 3528,
            "byteStride": 8,
            "target": 34962
        },
        {
            "buffer": 0,
            "byteOffset": 14112,
            "byteLength": 1590,
            "target": 34963
        }
    ],
    "accessors": [
        {
            "bufferView": 0,
            "byteOffset": 0,
            "componentType": 5126,
            "normalized": false,
            "count": 441,
            "min": [
                -19.724580764770508,
                -0.0002846717834472656,
                -9.246084213256836
            ],
            "max": [
                16.2951717376709,
                2.6100001335144043,
                9.225786209106445
            ],
            "type": "VEC3"
        },
        {
            "bufferView": 1,
            "byteOffset": 0,
            "componentType": 5126,
            "normalized": false,
            "count": 441,
            "min": [
                -0.5575588941574097,
                -1,
                -0.10956355929374695
            ],
            "max": [
                0.3726918697357178,
                1,
                0.2743067741394043
            ],
            "type": "VEC3"
        },
        {
            "bufferView": 2,
            "byteOffset": 0,
            "componentType": 5126,
            "normalized": false,
            "count": 441,
            "min": [
                0,
                0
            ],
            "max": [
                1,
                1
            ],
            "type": "VEC2"
        },
        {
            "bufferView": 3,
            "byteOffset": 0,
            "componentType": 5123,
            "normalized": false,
            "count": 795,
            "min": [
                0
            ],
            "max": [
                440
            ],
            "type": "SCALAR"
        }
    ],
    "scene": 0,
    "scenes": [
        {
            "nodes": [
                0
            ],
            "name": "Scene"
        }
    ],
    "nodes": [
        {
            "name": "navmesh",
            "matrix": [
                1,
                0,
                0,
                0,
                0,
                1,
                0,
                0,
                0,
                0,
                1,
                0,
                0,
                0.027577808126807213,
                0,
                1
            ],
            "mesh": 0
        }
    ],
    "meshes": [
        {
            "primitives": [
                {
                    "material": 0,
                    "mode": 4,
                    "attributes": {
                        "POSITION": 0,
                        "NORMAL": 1,
                        "TEXCOORD_0": 2
                    },
                    "indices": 3
                }
            ]
        }
    ],
    "materials": [
        {
            "pbrMetallicRoughness": {
                "baseColorFactor": [
                    0.8,
                    0.2196078431372549,
                    0.5725490196078431,
                    1
                ]
            },
            "emissiveFactor": [
                0,
                0,
                0
            ],
            "alphaMode": "OPAQUE",
            "doubleSided": false,
            "extensions": {
                "KHR_materials_unlit": {}
            }
        }
    ],
    "extensionsUsed": [
        "KHR_materials_unlit"
    ],
    "extensionsRequired": [
        "KHR_materials_unlit"
    ]
}
